<svg xmlns="http://www.w3.org/2000/svg" viewBox="0 0 77.61 77.61"><defs><style>.cls-1{fill:#877b63;}.cls-2{fill:#fff;}</style></defs><title>accomdation</title><g id="Layer_2" data-name="Layer 2"><g id="Layer_1-2" data-name="Layer 1"><circle class="cls-1" cx="38.8" cy="38.8" r="38.8"/><path class="cls-2" d="M58,45.88A3,3,0,0,0,56,43V25.68a3,3,0,0,0-3-3H47.37a11.11,11.11,0,0,0-17.14,0H24.67a3,3,0,0,0-3,3V43a3,3,0,0,0-2,2.84V57h2v1a3,3,0,0,0,3,3h4a3,3,0,0,0,3-3V57H45.87v1a3,3,0,0,0,3,3h4a3,3,0,0,0,3-3V57h2ZM35.78,35.66A27.61,27.61,0,0,1,31,34.8c-1-.25-2-.5-3.27-.7V31.74a1,1,0,0,1,1-1h6.06a1,1,0,0,1,1,1Zm-5.29,1.1a29.59,29.59,0,0,0,8.32,1,29.59,29.59,0,0,0,8.32-1,27.07,27.07,0,0,1,6.82-1v7.05H23.66V35.8A27.07,27.07,0,0,1,30.48,36.76Zm19.43-2.65c-1.26.19-2.28.45-3.28.7a27.72,27.72,0,0,1-4.8.86V31.74a1,1,0,0,1,1-1H48.9a1,1,0,0,1,1,1ZM24.67,24.67h6.56l.3-.4a9.09,9.09,0,0,1,14.54,0l.3.4h6.56a1,1,0,0,1,1,1v8.1q-1.1,0-2,.1V31.74a3,3,0,0,0-3-3H42.84a3,3,0,0,0-3,3v4l-1,0-1,0v-4a3,3,0,0,0-3-3H28.71a3,3,0,0,0-3,3v2.13q-.92-.07-2-.1v-8.1A1,1,0,0,1,24.67,24.67Zm5,33.33a1,1,0,0,1-1,1h-4a1,1,0,0,1-1-1V57h6.06ZM54,58a1,1,0,0,1-1,1h-4a1,1,0,0,1-1-1V57H54Zm2-3H21.64V45.88a1,1,0,0,1,1-1H55a1,1,0,0,1,1,1Z"/><path class="cls-2" d="M23.66,50.93H54v2H23.66Z"/></g></g></svg>