<svg xmlns="http://www.w3.org/2000/svg" viewBox="0 0 77.61 77.61"><defs><style>.cls-1{fill:#3762ae;}.cls-2{fill:#fff;}</style></defs><title>edu</title><g id="Layer_2" data-name="Layer 2"><g id="Layer_1-2" data-name="Layer 1"><circle class="cls-1" cx="38.8" cy="38.8" r="38.8"/><path class="cls-2" d="M39.28,47.85a1.2,1.2,0,0,0,.6-.16l10-5.68v8.31A25.86,25.86,0,0,1,41.72,52a1.2,1.2,0,0,0,.08,2.4h.08a29.63,29.63,0,0,0,8-1.53V57a1.2,1.2,0,0,0-.93,1.17v4.23a1.2,1.2,0,0,0,2.13.76,1.2,1.2,0,0,0,2.13-.76V58.17A1.2,1.2,0,0,0,52.26,57V39.75a1.2,1.2,0,0,0-.61-1L40.21,32.19A1.2,1.2,0,1,0,39,34.28l9.78,5.57-9.52,5.42-21.13-12,21.13-12L51,27.9a1.2,1.2,0,1,0,1.19-2.09l-12.35-7a1.2,1.2,0,0,0-1.19,0L15.11,32.19a1.2,1.2,0,0,0,0,2.09L38.68,47.7A1.21,1.21,0,0,0,39.28,47.85Z"/><path class="cls-2" d="M63.44,32.19l-6.85-3.9a1.2,1.2,0,1,0-1.19,2.09l5,2.85-3.6,2A1.2,1.2,0,0,0,58,37.38l5.44-3.09a1.2,1.2,0,0,0,0-2.09Z"/><path class="cls-2" d="M24.5,44.13a1.2,1.2,0,0,0-1.2,1.2V47.7c0,2.72,3.11,4.94,8.52,6.09l.25,0a1.2,1.2,0,0,0,.25-2.38C28,50.51,25.7,48.86,25.7,47.7V45.33A1.2,1.2,0,0,0,24.5,44.13Z"/><path class="cls-2" d="M35.57,52.32a1.2,1.2,0,1,0,1.7,0A1.25,1.25,0,0,0,35.57,52.32Z"/></g></g></svg>