<svg xmlns="http://www.w3.org/2000/svg" viewBox="0 0 77.61 77.61"><defs><style>.cls-1{fill:#ed2024;}.cls-2{fill:#fff;}</style></defs><title>administrative</title><g id="Layer_2" data-name="Layer 2"><g id="Layer_1-2" data-name="Layer 1"><circle class="cls-1" cx="38.8" cy="38.8" r="38.8"/><path class="cls-2" d="M38.8,23.27A3.17,3.17,0,1,0,42,26.43,3.17,3.17,0,0,0,38.8,23.27Zm0,4.4A1.24,1.24,0,1,1,40,26.43,1.24,1.24,0,0,1,38.8,27.67Z"/><path class="cls-2" d="M58.75,52.42h-2.5V33.14H58a.94.94,0,0,0,1-.92v-4.4a1,1,0,0,0-.59-.89l-19-8.12a1,1,0,0,0-.76,0L19.71,26.93a1,1,0,0,0-.57.89v4.4a.9.9,0,0,0,.88.92h1.82V52.42h-3a1,1,0,0,0-1,1h0V58a.94.94,0,0,0,1,.92H58.75a.94.94,0,0,0,1-.92V53.37A1,1,0,0,0,58.75,52.42ZM21.07,31.21V28.45l18-7.7,18,7.7v2.76Zm33.26,1.93V52.42H49.6V33.14Zm-6.65,0V52.42H43V33.14Zm-6.56,0V52.42H36.49V33.14Zm-6.56,0V52.42H29.94V33.14Zm-6.56,0V52.42H23.77V33.14ZM57.8,56.95h-38v-2.6h38Z"/></g></g></svg>