<svg xmlns="http://www.w3.org/2000/svg" viewBox="0 0 77.61 77.61"><defs><style>.cls-1{fill:#199bd7;}.cls-2{fill:#fff;}</style></defs><title>entertaiment</title><g id="Layer_2" data-name="Layer 2"><g id="Layer_1-2" data-name="Layer 1"><circle class="cls-1" cx="38.8" cy="38.8" r="38.8"/><path class="cls-2" d="M57.42,34.54H27.92l28.33-8.21a.86.86,0,0,0,.59-1.07l-1.48-5.12a4.84,4.84,0,0,0-4.63-3.47,4.79,4.79,0,0,0-1.33.19L22.8,24.57a4.82,4.82,0,0,0-3.28,6l1.45,5v20.6a4.82,4.82,0,0,0,4.81,4.81H36.17a.86.86,0,1,0,0-1.73H25.78a3.09,3.09,0,0,1-3.08-3.08V44.36H56.55V56.13a3.09,3.09,0,0,1-3.08,3.08H43.08a.86.86,0,1,0,0,1.73H53.47a4.82,4.82,0,0,0,4.81-4.81V35.41A.86.86,0,0,0,57.42,34.54ZM42.17,42.63l3.67-6.36h4.78L47,42.63Zm-6.77,0,3.67-6.36h4.78l-3.67,6.36Zm-6.77,0,3.67-6.36h4.78L33.4,42.63Zm3.21-11.19-6.15-5.91L30.3,24.2l.11.13,6.15,5.91L32,31.57ZM43.42,20.56l6.15,5.91L45,27.8l-.11-.13L38.7,21.76l4.61-1.34Zm-6.51,1.89,6.15,5.91-4.61,1.34-.11-.13-6.15-5.91,4.61-1.34Zm13-3.92a3.06,3.06,0,0,1,.85-.12,3.1,3.1,0,0,1,3,2.22l1.24,4.29-3.47,1-.11-.13-6.15-5.91ZM21.44,27.7a3.06,3.06,0,0,1,1.84-1.48l.51-.15.11.13,6.15,5.91-7.63,2.21L21.18,30A3.06,3.06,0,0,1,21.44,27.7Zm1.25,8.57H30.3l-3.67,6.36H22.69Zm26.25,6.36,3.67-6.36h3.93v6.36Z"/><path class="cls-2" d="M45.6,51.7a.86.86,0,0,0-.43-.75l-7.6-4.39a.86.86,0,0,0-1.3.75v8.77a.86.86,0,0,0,1.3.75l7.6-4.39A.86.86,0,0,0,45.6,51.7ZM38,54.58V48.81l5,2.89Z"/><path class="cls-2" d="M39.62,59.21a.86.86,0,1,0,.86.86A.87.87,0,0,0,39.62,59.21Z"/></g></g></svg>