<?xml version="1.0" encoding="iso-8859-1"?>
<!-- Generator: Adobe Illustrator 19.0.0, SVG Export Plug-In . SVG Version: 6.00 Build 0)  -->
<svg version="1.1" id="Capa_1" xmlns="http://www.w3.org/2000/svg" xmlns:xlink="http://www.w3.org/1999/xlink" x="0px" y="0px"
	 viewBox="0 0 460.012 460.012" style="enable-background:new 0 0 460.012 460.012;" xml:space="preserve">
<path style="fill:#1185E0;" d="M39.312,196.047L33.565,59.165c0-4.18,1.567-8.359,4.18-11.494c3.135-3.135,6.792-4.702,11.494-4.702
	h142.629c5.747,0,10.449,3.135,13.584,7.837l28.212,47.02h177.633c8.882,0,15.673,6.792,15.673,15.673v82.024h-31.347v-66.351
	H224.781c-5.747,0-10.449-3.135-13.584-7.837l-28.212-47.02H65.434l5.224,120.686L39.312,196.047z"/>
<path style="fill:#4DCFE0;" d="M411.818,417.043H48.716c-7.837,0-14.106-5.747-15.673-13.061L0.128,198.136
	c-0.522-4.702,0.522-9.404,3.657-12.539s7.314-5.747,12.016-5.747H444.21c4.702,0,8.882,2.09,12.016,5.747
	c3.135,3.657,4.18,7.837,3.657,12.539l-32.392,205.845C425.924,411.296,419.655,417.043,411.818,417.043z M62.3,385.696h336.457
	l27.69-174.498H34.61L62.3,385.696z"/>
<g>
</g>
<g>
</g>
<g>
</g>
<g>
</g>
<g>
</g>
<g>
</g>
<g>
</g>
<g>
</g>
<g>
</g>
<g>
</g>
<g>
</g>
<g>
</g>
<g>
</g>
<g>
</g>
<g>
</g>
</svg>
