<svg xmlns="http://www.w3.org/2000/svg" viewBox="0 0 77.61 77.61"><defs><style>.cls-1{fill:#f05050;}.cls-2{fill:none;}.cls-3{fill:#fff;}</style></defs><title>food</title><g id="Layer_2" data-name="Layer 2"><g id="Layer_1-2" data-name="Layer 1"><circle class="cls-1" cx="38.8" cy="38.8" r="38.8"/><path class="cls-2" d="M51.61,23.88a3,3,0,0,0-5.54,0l-.85,2.79a12.7,12.7,0,0,0-.35,5.86,3.74,3.74,0,0,0,2.44,2.8,1.83,1.83,0,0,1,1.2,1.8l-1,22.42a1.13,1.13,0,0,0,.26.94,1.56,1.56,0,0,0,2.17,0,1,1,0,0,0,.25-.8l-1-22.54a1.83,1.83,0,0,1,1.19-1.8,3.74,3.74,0,0,0,2.45-2.81,12.73,12.73,0,0,0-.35-5.85Z"/><path class="cls-3" d="M55,25.91l-.86-2.82a5.62,5.62,0,0,0-10.64,0l-.85,2.8a15.4,15.4,0,0,0-.43,7.1,6.36,6.36,0,0,0,3.29,4.45l.28.15-1,21.74a3.75,3.75,0,0,0,.94,2.92,4.16,4.16,0,0,0,5.87.26l.26-.26a3.68,3.68,0,0,0,.94-2.81l-1-21.86.28-.15A6.36,6.36,0,0,0,55.45,33,15.39,15.39,0,0,0,55,25.91ZM53.8,32.72h0a4.74,4.74,0,0,1-3.09,3.56.83.83,0,0,0-.53.81l1,22.5a2,2,0,0,1-.53,1.57,2.58,2.58,0,0,1-1.82.75A2.54,2.54,0,0,1,47,61.2a2.11,2.11,0,0,1-.53-1.72l1-22.37a.83.83,0,0,0-.54-.82,4.74,4.74,0,0,1-3.08-3.56,13.72,13.72,0,0,1,.38-6.33l.86-2.82a4,4,0,0,1,7.43,0l.87,2.85A13.74,13.74,0,0,1,53.8,32.72Z"/><path class="cls-3" d="M35.44,32.73a.83.83,0,0,0,.24-.59v-12a.83.83,0,0,0-1.67,0V31.79l-3.76,3.76a.83.83,0,0,0-.24.63l1.17,23.33a2.32,2.32,0,0,1-.64,1.73,2.37,2.37,0,0,1-1.68.71,2.5,2.5,0,0,1-1.68-.69,2.34,2.34,0,0,1-.66-1.75l1.17-23.33a.84.84,0,0,0-.24-.63l-3.76-3.75V20.14a.83.83,0,0,0-1.67,0v12a.83.83,0,0,0,.24.59L26,36.47l-1.15,23a4,4,0,0,0,8,.39,3.69,3.69,0,0,0,0-.39l-1.15-23Z"/><path class="cls-3" d="M26.85,31.64a.83.83,0,0,0,.83-.83V20.14a.83.83,0,0,0-1.67,0V30.81A.83.83,0,0,0,26.85,31.64Z"/><path class="cls-3" d="M30.85,31.64a.83.83,0,0,0,.83-.83V20.14a.83.83,0,0,0-1.67,0V30.81A.83.83,0,0,0,30.85,31.64Z"/><path class="cls-3" d="M41.77,63.13l-.07-.28,0,.28a25.07,25.07,0,0,1-5.76,0h-.1a.83.83,0,0,0-.1,1.66,26.54,26.54,0,0,0,6.15,0,.83.83,0,1,0-.15-1.66Z"/><path class="cls-3" d="M58.86,21.95h0a.83.83,0,0,0-.57-.29h-.07a.83.83,0,0,0-.53.19.84.84,0,0,0-.1,1.18,24.64,24.64,0,0,1-1.44,33.13.83.83,0,0,0,1.18,1.18A26.32,26.32,0,0,0,58.86,21.95Z"/><path class="cls-3" d="M44.63,15a.84.84,0,0,0,.63-.1A.83.83,0,0,0,45,13.37a26.31,26.31,0,0,0-15.4.95.83.83,0,0,0-.49,1.07.84.84,0,0,0,1.07.49A24.62,24.62,0,0,1,44.63,15Z"/><path class="cls-3" d="M14.35,38.8A24.15,24.15,0,0,1,19,24.39a.83.83,0,1,0-1.33-1,26.06,26.06,0,0,0,2.61,33.88.84.84,0,1,0,1.18-1.18A24.51,24.51,0,0,1,14.35,38.8Z"/></g></g></svg>