<svg xmlns="http://www.w3.org/2000/svg" viewBox="0 0 77.61 77.61"><defs><style>.cls-1{fill:#f39292;}.cls-2{fill:#fff;}</style></defs><title>health-beauty</title><g id="Layer_2" data-name="Layer 2"><g id="Layer_1-2" data-name="Layer 1"><circle class="cls-1" cx="38.8" cy="38.8" r="38.8"/><path class="cls-2" d="M34.41,46l-.23.09.64,1.6.23-.09a10.51,10.51,0,0,1,7.51,0l.23.09.64-1.6L43.2,46A12.25,12.25,0,0,0,34.41,46Z"/><path class="cls-2" d="M37.94,33.11h1.72v9.47H37.94Z"/><path class="cls-2" d="M62.9,15.89V31.69a2.59,2.59,0,0,1-.13.82L58.68,44.78l-6.39,10a1.32,1.32,0,0,1-.88.59,1.41,1.41,0,0,1-1.47-2c1.5-2.72,4.25-7.76,4.25-7.76a.87.87,0,0,0,.08-.19l.7-2.55,2.74-8.6-1.64-.52-2.74,8.62h0l0,0a1.51,1.51,0,0,1-1.86,1.06l-.16-.06a1.51,1.51,0,0,1-.92-1.7L51.7,35a.88.88,0,0,0,0-.17V32.31a13.74,13.74,0,0,1,4.05-9.78.86.86,0,0,0,.25-.61v-6H54.3v5.67a15.66,15.66,0,0,0-1.62,2,16.32,16.32,0,0,0-27.74,0,15.66,15.66,0,0,0-1.62-2V15.89H21.59v6a.86.86,0,0,0,.25.61,13.74,13.74,0,0,1,4.05,9.78v2.52a.88.88,0,0,0,0,.17l1.33,6.67a1.51,1.51,0,0,1-2.94.69l0,0h0l-2.74-8.62-1.64.52,2.74,8.6.7,2.55a.87.87,0,0,0,.08.19s2.75,5,4.25,7.76a1.38,1.38,0,0,1-.43,1.79,1.33,1.33,0,0,1-1,.24,1.31,1.31,0,0,1-.88-.59l-6.39-10L14.84,32.5a2.57,2.57,0,0,1-.13-.82V15.89H13V31.69A4.29,4.29,0,0,0,13.21,33l4.13,12.38a.86.86,0,0,0,.09.19L23.87,55.7a3.06,3.06,0,0,0,2,1.36,3,3,0,0,0,.54,0,3.13,3.13,0,0,0,1.88-.64l.09-.08.18.22a13.62,13.62,0,0,0,1.61,1.5v3.27a16,16,0,0,1-.82,5,.86.86,0,0,0,.82,1.13H47.41a.86.86,0,0,0,.82-1.13,16,16,0,0,1-.82-5V58.11A13.58,13.58,0,0,0,49,56.61l.19-.22.13.12a3,3,0,0,0,4.27-.61l.13-.19,6.44-10.09a.86.86,0,0,0,.09-.19L64.4,33a4.3,4.3,0,0,0,.22-1.36V15.89ZM51.47,25.71c-.22-.27-.46-.53-.69-.78l.43-.43c.16.26.31.52.46.79-.07.14-.13.28-.19.42Zm-1.27-2.64-.66.66a16,16,0,0,0-2.05-1.54l1-1A14.54,14.54,0,0,1,50.21,23.07ZM31.69,21.33l-1.15-1.15a14.54,14.54,0,0,1,2.69-1.47l.84,1.68a15.64,15.64,0,0,0-2.38.94ZM35.79,20l-.91-1.82a14.62,14.62,0,0,1,3.07-.5v2.06a16,16,0,0,0-2.16.26Zm3.88-2.33a14.7,14.7,0,0,1,3.08.51L41.83,20a16.09,16.09,0,0,0-2.16-.26Zm4.72,1.07a14.49,14.49,0,0,1,2.7,1.46l-1.16,1.16a15.65,15.65,0,0,0-2.38-.94ZM29.17,21.25l.94.94a15.81,15.81,0,0,0-2.05,1.54l-.65-.65a14.53,14.53,0,0,1,1-1.18c.23-.23.48-.44.72-.65ZM26.4,24.5l.43.43c-.23.25-.47.51-.69.78-.07-.14-.12-.28-.19-.42.14-.27.29-.53.45-.79ZM46.26,65.81H31.35a17.63,17.63,0,0,0,.57-4.44V59.31a14,14,0,0,0,1.3.66,13.75,13.75,0,0,0,11.17,0,14,14,0,0,0,1.3-.66v2.06A17.63,17.63,0,0,0,46.26,65.81Zm1.48-10.36a11.94,11.94,0,0,1-4.05,2.95,12.08,12.08,0,0,1-9.77,0,12,12,0,0,1-4.06-3c-.16-.17-.3-.35-.45-.53a3.05,3.05,0,0,0-.23-2.41c-1.24-2.26-3.35-6.12-4-7.36a3.23,3.23,0,0,0,3.79-3.81l-.58-2.92c.76.07,1.53.13,2.3.13a23.34,23.34,0,0,0,4-.34l-.3-1.7a21.82,21.82,0,0,1-6.36.14l-.38-1.9V33.26a9.25,9.25,0,0,1,6.67-.69l.42-1.67a11.11,11.11,0,0,0-7.14.47,15.53,15.53,0,0,0-.69-3.78,14.42,14.42,0,0,1,1.43-1.74l.15-.16.17-.16a14.29,14.29,0,0,1,3.29-2.4,14,14,0,0,1,3.59-1.34,14.49,14.49,0,0,1,6.6,0,14,14,0,0,1,3.58,1.34A14.32,14.32,0,0,1,49,25.54l.34.34a14.08,14.08,0,0,1,1.4,1.71A15.52,15.52,0,0,0,50,31.37a11.12,11.12,0,0,0-7.14-.47l.42,1.67a9.24,9.24,0,0,1,6.67.69v1.48l-.4,2a21.59,21.59,0,0,1-5.48-.22l-.3,1.7a23.2,23.2,0,0,0,4,.34c.49,0,1,0,1.47,0l-.57,2.85a3.23,3.23,0,0,0,3.79,3.81c-.68,1.24-2.79,5.11-4,7.36a3,3,0,0,0-.23,2.4c-.15.18-.3.37-.46.55Z"/></g></g></svg>