<svg xmlns="http://www.w3.org/2000/svg" viewBox="0 0 77.61 77.61"><defs><style>.cls-1{fill:#178753;}.cls-2{fill:#fff;}</style></defs><title>home-office</title><g id="Layer_2" data-name="Layer 2"><g id="Layer_1-2" data-name="Layer 1"><circle class="cls-1" cx="38.8" cy="38.8" r="38.8"/><path class="cls-2" d="M61.15,23H52.67V16.84a.77.77,0,0,0-.77-.77H25.71a.77.77,0,0,0-.77.77V27.63H16.46a.77.77,0,0,0-.77.77V60a.77.77,0,0,0,1.54,0V29.17h7.71V60.76a.77.77,0,0,0,.77.77H51.9a.77.77,0,0,0,.77-.77V24.55h7.71V60a.77.77,0,0,0,1.54,0V23.78A.77.77,0,0,0,61.15,23ZM38,60H35V53.06H38Zm4.62,0H39.58V53.06h3.08Zm8.48,0H44.2V52.29a.77.77,0,0,0-.77-.77H34.18a.77.77,0,0,0-.77.77V60H26.48V17.62H51.13Z"/><path class="cls-2" d="M35.58,19.16H31a.77.77,0,0,0-.77.77v4.62a.77.77,0,0,0,.77.77h4.62a.77.77,0,0,0,.77-.77V19.93A.77.77,0,0,0,35.58,19.16Zm-.77,4.62H31.73V20.7h3.08Z"/><path class="cls-2" d="M46.32,19.16H41.7a.77.77,0,0,0-.77.77v4.62a.77.77,0,0,0,.77.77h4.62a.77.77,0,0,0,.77-.77V19.93A.77.77,0,0,0,46.32,19.16Zm-.77,4.62H42.47V20.7h3.08Z"/><path class="cls-2" d="M35.58,29H31a.77.77,0,0,0-.77.77v4.62a.77.77,0,0,0,.77.77h4.62a.77.77,0,0,0,.77-.77V29.8A.77.77,0,0,0,35.58,29Zm-.77,4.62H31.73V30.57h3.08Z"/><path class="cls-2" d="M46.32,29H41.7a.77.77,0,0,0-.77.77v4.62a.77.77,0,0,0,.77.77h4.62a.77.77,0,0,0,.77-.77V29.8A.77.77,0,0,0,46.32,29Zm-.77,4.62H42.47V30.57h3.08Z"/><path class="cls-2" d="M35.58,39.82H31a.77.77,0,0,0-.77.77v4.62A.77.77,0,0,0,31,46h4.62a.77.77,0,0,0,.77-.77V40.59A.77.77,0,0,0,35.58,39.82Zm-.77,4.62H31.73V41.36h3.08Z"/><path class="cls-2" d="M46.32,39.82H41.7a.77.77,0,0,0-.77.77v4.62a.77.77,0,0,0,.77.77h4.62a.77.77,0,0,0,.77-.77V40.59A.77.77,0,0,0,46.32,39.82Zm-.77,4.62H42.47V41.36h3.08Z"/></g></g></svg>