<svg xmlns="http://www.w3.org/2000/svg" width="24" height="24" viewBox="0 0 24 24">
    <path fill="#9EA7D0" fill-rule="nonzero" d="M15.01 16.951a.7.7 0 1 0 .992.989l4.385-4.4a2.102 2.102 0 0 0-.001-2.97L16 6.204a.7.7 0 0 0-.988.992l4.385 4.365a.7.7 0 0 1-.001.99l-4.386 4.4zM4.665 15.704a5.69 5.69 0 0 0 9.305-1.926.729.729 0 0 0-1.355-.536 4.232 4.232 0 0 1-6.92 1.431 4.232 4.232 0 0 1 0-5.978 4.232 4.232 0 0 1 6.852 1.27.729.729 0 0 0 1.331-.593 5.69 5.69 0 0 0-9.213-1.707 5.69 5.69 0 0 0 0 8.039z"/>
</svg>
