<svg xmlns="http://www.w3.org/2000/svg" width="24" height="24" viewBox="0 0 24 24">
    <path fill="#3880FF" fill-rule="evenodd" d="M12.207 14.602a4.4 4.4 0 0 1-4.395-4.395 4.4 4.4 0 0 1 4.395-4.395 4.4 4.4 0 0 1 4.21 5.659.703.703 0 0 1-1.347-.404 2.992 2.992 0 0 0-2.863-3.848 2.992 2.992 0 0 0-2.988 2.988 2.992 2.992 0 0 0 3.808 2.875.703.703 0 1 1 .385 1.352 4.4 4.4 0 0 1-1.205.168zm.805 6.07c.771-1.219 1.736-2.276 2.67-3.298.951-1.042 1.85-2.027 2.542-3.155.8-1.303 1.189-2.618 1.19-4.02a7.16 7.16 0 0 0-2.114-5.09A7.16 7.16 0 0 0 12.207 3a7.16 7.16 0 0 0-5.093 2.108A7.161 7.161 0 0 0 5 10.2c.001 1.401.39 2.716 1.19 4.019.692 1.128 1.59 2.113 2.543 3.155.933 1.022 1.898 2.08 2.669 3.299a.703.703 0 0 0 .594.327h.422a.703.703 0 0 0 .594-.327zM18.008 10.2c-.003 2.545-1.56 4.251-3.365 6.227-.83.909-1.684 1.844-2.436 2.92-.752-1.076-1.606-2.011-2.436-2.92C7.967 14.45 6.41 12.744 6.406 10.2a5.809 5.809 0 0 1 5.801-5.794c3.195 0 5.797 2.6 5.8 5.793z"/>
</svg>
