<svg xmlns="http://www.w3.org/2000/svg" width="24" height="24" viewBox="0 0 24 24">
    <path fill="#FF7B66" fill-rule="evenodd" d="M8.99 16.951a.7.7 0 1 1-.992.989l-4.385-4.4a2.102 2.102 0 0 1 .001-2.97L8 6.204a.7.7 0 0 1 .988.992l-4.385 4.365a.7.7 0 0 0 .001.99l4.386 4.4zm10.345-1.247a5.69 5.69 0 0 1-9.305-1.926.729.729 0 0 1 1.355-.536 4.232 4.232 0 0 0 6.92 1.431 4.232 4.232 0 0 0 0-5.978 4.232 4.232 0 0 0-6.852 1.27.729.729 0 0 1-1.331-.593 5.69 5.69 0 0 1 9.213-1.707 5.69 5.69 0 0 1 0 8.039z"/>
</svg>
