<svg xmlns="http://www.w3.org/2000/svg" width="14" height="13" viewBox="0 0 14 13">
    <g fill="#4C4C4C" fill-rule="nonzero">
        <path d="M13.453 8.258A.547.547 0 0 0 14 7.71V4.156a2.19 2.19 0 0 0-2.188-2.187h-.83a.547.547 0 0 1-.517-.37l-.166-.487A1.64 1.64 0 0 0 8.746 0H5.252C4.563 0 3.943.435 3.71 1.083l-.19.525a.548.548 0 0 1-.513.36h-.818A2.19 2.19 0 0 0 0 4.157v6.29a2.19 2.19 0 0 0 2.188 2.187h9.624A2.19 2.19 0 0 0 14 10.445a.547.547 0 1 0-1.094 0c0 .603-.49 1.094-1.094 1.094H2.188c-.604 0-1.094-.49-1.094-1.094V4.156c0-.603.49-1.093 1.093-1.093h.819c.688 0 1.309-.436 1.543-1.084l.189-.524a.548.548 0 0 1 .514-.361h3.494c.234 0 .442.149.518.37l.165.487a1.64 1.64 0 0 0 1.553 1.111h.83c.604 0 1.094.491 1.094 1.094v3.555c0 .302.245.547.547.547z"/>
        <path d="M7.027 3.61A3.422 3.422 0 0 0 3.61 7.026a3.422 3.422 0 0 0 3.418 3.418 3.422 3.422 0 0 0 3.418-3.418A3.422 3.422 0 0 0 7.027 3.61zm0 5.742a2.327 2.327 0 0 1-2.324-2.325 2.327 2.327 0 0 1 2.324-2.324 2.327 2.327 0 0 1 2.325 2.324 2.327 2.327 0 0 1-2.325 2.325z"/>
    </g>
</svg>
