<svg xmlns="http://www.w3.org/2000/svg" width="24" height="24" viewBox="0 0 24 24">
    <path fill="#3880FF" fill-rule="evenodd" d="M11.576 14.153a.432.432 0 0 1-.331-.15L8.969 11.53a.45.45 0 0 1 .03-.633.45.45 0 0 1 .633.03l1.96 2.125 5.425-5.41c.18-.181.467-.181.633 0 .165.18.18.467 0 .633l-5.757 5.742a.41.41 0 0 1-.317.135zm.422 3.843C8.698 17.996 6 15.3 6 11.998 6 8.698 8.698 6 11.998 6c.256 0 .452.196.452.452a.444.444 0 0 1-.452.452 5.107 5.107 0 0 0-5.094 5.094 5.107 5.107 0 0 0 5.094 5.094 5.107 5.107 0 0 0 5.094-5.094c0-.256.196-.452.452-.452s.452.196.452.452c0 3.3-2.697 5.998-5.998 5.998z"/>
</svg>
