<svg xmlns="http://www.w3.org/2000/svg" width="24" height="24" viewBox="0 0 24 24">
    <path fill="#3880FF" fill-rule="evenodd" d="M19.594 14.672V7.219c0-.776-.631-1.407-1.407-1.407h-.914v.704a.703.703 0 1 1-1.406 0v-.704h-3.199v.704a.703.703 0 1 1-1.406 0v-.704H8.098v.704a.703.703 0 1 1-1.407 0v-.704h-.878c-.776 0-1.407.631-1.407 1.407v10.968c0 .776.631 1.407 1.407 1.407h12.375c.775 0 1.406-.631 1.406-1.407a.703.703 0 1 1 1.406 0A2.816 2.816 0 0 1 18.187 21H5.813A2.816 2.816 0 0 1 3 18.187V7.22a2.816 2.816 0 0 1 2.813-2.813h.878v-.703a.703.703 0 1 1 1.407 0v.703h3.164v-.703a.703.703 0 1 1 1.406 0v.703h3.2v-.703a.703.703 0 1 1 1.405 0v.703h.915A2.816 2.816 0 0 1 21 7.22v7.453a.703.703 0 1 1-1.406 0zm-11.496-4.29a.703.703 0 1 0-1.407 0 .703.703 0 0 0 1.407 0zm6.117 0a.703.703 0 1 0-1.406 0 .703.703 0 0 0 1.406 0zm3.058 0a.703.703 0 1 0-1.406 0 .703.703 0 0 0 1.406 0zm-9.175 3.06a.703.703 0 1 0-1.407 0 .703.703 0 0 0 1.407 0zm-.703 2.355a.703.703 0 1 0 0 1.406.703.703 0 0 0 0-1.406zm3.761-5.414a.703.703 0 1 0-1.406 0 .703.703 0 0 0 1.406 0zm0 3.058a.703.703 0 1 0-1.406 0 .703.703 0 0 0 1.406 0zm-.703 2.356a.703.703 0 1 0 0 1.406.703.703 0 0 0 0-1.406zm3.762-2.356a.703.703 0 1 0-1.406 0 .703.703 0 0 0 1.406 0zm2.355-.703a.703.703 0 1 0 0 1.407.703.703 0 0 0 0-1.407zm-3.058 3.059a.703.703 0 1 0 0 1.406.703.703 0 0 0 0-1.406z"/>
</svg>
