<svg xmlns="http://www.w3.org/2000/svg" width="24" height="24" viewBox="0 0 24 24">
    <path fill="#4C4C4C" fill-rule="evenodd" d="M19.567 4.433A3.407 3.407 0 0 0 17.14 3.43c-.916 0-1.777.356-2.425 1.004L5.13 14.02a.67.67 0 0 0-.171.294l-1.506 5.41a.67.67 0 0 0 .828.823l5.41-1.537a.67.67 0 0 0 .29-1.117l-3.41-3.42 7.946-7.946 2.955 2.955-6.082 6.066a.67.67 0 0 0 .945.949l7.232-7.212a3.407 3.407 0 0 0 1.004-2.425c0-.917-.356-1.778-1.004-2.426zM8.23 18.033l-3.167.898.887-3.185 2.28 2.286zm10.39-9.697l-.2.2-2.956-2.957.2-.199c.394-.395.919-.612 1.477-.612.559 0 1.084.217 1.479.612s.612.92.612 1.479c0 .558-.217 1.083-.612 1.477z"/>
</svg>
