<svg xmlns="http://www.w3.org/2000/svg" width="24" height="24" viewBox="0 0 24 24">
    <path fill="#3880FF" fill-rule="evenodd" d="M20.297 13.139a.703.703 0 0 0 .703-.703V7.83a2.816 2.816 0 0 0-2.813-2.812H5.813A2.816 2.816 0 0 0 3 7.83v8.121a2.816 2.816 0 0 0 2.813 2.813h12.375A2.816 2.816 0 0 0 21 15.95a.703.703 0 1 0-1.406 0c0 .776-.631 1.406-1.407 1.406H5.813c-.775 0-1.406-.63-1.406-1.406V7.98l6.109 3.799c.458.284.971.427 1.485.427.514 0 1.027-.143 1.485-.427l6.109-3.799v4.457c0 .388.315.703.703.703zm-7.554-2.556a1.397 1.397 0 0 1-1.486 0L4.993 6.688c.239-.172.525-.265.82-.264h12.375c.294 0 .58.092.819.264l-6.264 3.895z"/>
</svg>
