<svg xmlns="http://www.w3.org/2000/svg" width="24" height="24" viewBox="0 0 24 24">
    <path fill="#3880FF" fill-rule="evenodd" d="M15.633 21h-6.82A2.816 2.816 0 0 1 6 18.187V5.813A2.816 2.816 0 0 1 8.813 3h6.82a2.816 2.816 0 0 1 2.812 2.813v8.863a.703.703 0 0 1-1.406 0V5.812c0-.775-.63-1.406-1.406-1.406h-6.82c-.776 0-1.407.631-1.407 1.407v12.375c0 .775.631 1.406 1.407 1.406h6.82c.775 0 1.406-.631 1.406-1.407a.703.703 0 1 1 1.406 0A2.816 2.816 0 0 1 15.633 21zm-2.707-3.195a.703.703 0 1 0-1.406 0 .703.703 0 0 0 1.406 0zm.703-11.601a.703.703 0 0 0-.703-.704H11.52a.703.703 0 1 0 0 1.407h1.406a.703.703 0 0 0 .703-.703z"/>
</svg>
