<svg xmlns="http://www.w3.org/2000/svg" width="24" height="24" viewBox="0 0 24 24">
    <path fill="#3880FF" fill-rule="evenodd" d="M18.344 15.023v-2.601c0-.776-.631-1.406-1.407-1.406H6.813c-.775 0-1.406.63-1.406 1.406v5.765c0 .776.631 1.407 1.407 1.407h10.125c.775 0 1.406-.631 1.406-1.407a.703.703 0 1 1 1.406 0A2.816 2.816 0 0 1 16.937 21H6.813A2.816 2.816 0 0 1 4 18.187v-5.765a2.816 2.816 0 0 1 2.813-2.813h.842V7.13C7.655 4.854 9.547 3 11.874 3c2.326 0 4.218 1.861 4.218 4.148a.703.703 0 1 1-1.406 0c0-1.512-1.261-2.742-2.812-2.742S9.06 5.628 9.06 7.13v2.48h7.876a2.816 2.816 0 0 1 2.813 2.812v2.601a.703.703 0 1 1-1.406 0zm-7.172.176a.703.703 0 1 0 1.406 0 .703.703 0 0 0-1.406 0z"/>
</svg>
