<svg xmlns="http://www.w3.org/2000/svg" width="24" height="24" viewBox="0 0 24 24">
    <path fill="#3880FF" fill-rule="evenodd" d="M20.954 18.424a.703.703 0 1 0-1.376.286.735.735 0 0 1-.15.616.714.714 0 0 1-.562.268H5.134a.714.714 0 0 1-.563-.268.735.735 0 0 1-.149-.616c.73-3.504 3.822-6.065 7.392-6.151.124.005.249.005.373 0a7.735 7.735 0 0 1 6.247 3.433.703.703 0 1 0 1.168-.783 9.146 9.146 0 0 0-4.74-3.6 4.777 4.777 0 0 0 1.92-3.828A4.787 4.787 0 0 0 12 3a4.787 4.787 0 0 0-4.781 4.781c0 1.565.755 2.956 1.92 3.83a9.137 9.137 0 0 0-2.946 1.619 9.173 9.173 0 0 0-3.147 5.194A2.135 2.135 0 0 0 5.134 21h13.732a2.135 2.135 0 0 0 2.088-2.576zM8.625 7.78A3.379 3.379 0 0 1 12 4.406a3.379 3.379 0 0 1 3.375 3.375 3.38 3.38 0 0 1-3.204 3.371 9.21 9.21 0 0 0-.341 0 3.38 3.38 0 0 1-3.205-3.37z"/>
</svg>
