<svg xmlns="http://www.w3.org/2000/svg" width="56" height="56" viewBox="0 0 56 56">
    <g fill="none" fill-rule="evenodd">
        <circle cx="28" cy="28" r="28" fill="#37CCB9"/>
        <path fill="#FFF" fill-rule="nonzero" d="M39.859 19.152a3.984 3.984 0 0 0-2.836-1.175c-1.07 0-2.077.417-2.835 1.175l-9.196 9.195-3.18-3.18a3.984 3.984 0 0 0-2.835-1.175c-1.071 0-2.078.417-2.836 1.175a3.982 3.982 0 0 0-1.175 2.836c0 1.071.418 2.078 1.175 2.835l6.016 6.016a3.984 3.984 0 0 0 2.835 1.175c1.071 0 2.078-.418 2.836-1.175l12.03-12.031a3.982 3.982 0 0 0 1.176-2.836 3.982 3.982 0 0 0-1.175-2.835zm-1.418 4.253L26.41 35.435a1.992 1.992 0 0 1-1.418.588 1.992 1.992 0 0 1-1.417-.587l-6.016-6.016a1.99 1.99 0 0 1-.588-1.417c0-.536.209-1.04.588-1.418a1.992 1.992 0 0 1 1.418-.588c.535 0 1.038.21 1.417.588l4.598 4.598L35.606 20.57a1.992 1.992 0 0 1 1.417-.587c.536 0 1.039.209 1.418.588.379.378.588.881.588 1.417a1.99 1.99 0 0 1-.588 1.418z"/>
    </g>
</svg>
