<svg xmlns="http://www.w3.org/2000/svg" width="56" height="56" viewBox="0 0 56 56">
    <g fill="none" fill-rule="evenodd">
        <circle cx="28" cy="28" r="28" fill="#FF7B66"/>
        <path fill="#FFF" fill-rule="nonzero" d="M34.17 28l4.551-4.55A4.333 4.333 0 0 0 40 20.363a4.333 4.333 0 0 0-1.278-3.086A4.335 4.335 0 0 0 35.636 16c-1.165 0-2.26.454-3.085 1.278L28 21.83l-4.551-4.552A4.335 4.335 0 0 0 20.364 16c-1.166 0-2.261.454-3.085 1.278A4.333 4.333 0 0 0 16 20.364c0 1.165.454 2.261 1.278 3.085L21.83 28l-4.551 4.55A4.333 4.333 0 0 0 16 35.637c0 1.166.454 2.262 1.278 3.086A4.335 4.335 0 0 0 20.364 40c1.165 0 2.26-.454 3.085-1.278L28 34.17l4.551 4.552A4.335 4.335 0 0 0 35.636 40c1.165 0 2.261-.454 3.085-1.278A4.333 4.333 0 0 0 40 35.636a4.333 4.333 0 0 0-1.278-3.085L34.17 28zm3.009 9.179c-.413.412-.96.64-1.543.64-.582 0-1.13-.228-1.542-.64l-5.323-5.323a1.087 1.087 0 0 0-1.542 0l-5.323 5.323c-.412.412-.96.64-1.542.64-.583 0-1.13-.228-1.543-.64a2.166 2.166 0 0 1-.64-1.543c0-.582.228-1.13.64-1.542l5.323-5.323a1.09 1.09 0 0 0 0-1.542l-5.323-5.323a2.166 2.166 0 0 1-.64-1.542c0-.583.228-1.13.64-1.543.413-.412.96-.64 1.543-.64.582 0 1.13.228 1.542.64l5.323 5.323a1.091 1.091 0 0 0 1.542 0l5.323-5.323c.412-.412.96-.64 1.542-.64.583 0 1.13.228 1.543.64.412.412.64.96.64 1.543 0 .582-.228 1.13-.64 1.542l-5.323 5.323a1.09 1.09 0 0 0 0 1.542l5.323 5.323c.412.412.64.96.64 1.542 0 .583-.228 1.13-.64 1.543z"/>
    </g>
</svg>
