<svg xmlns="http://www.w3.org/2000/svg" width="28" height="28" viewBox="0 0 28 28">
    <g fill="none" fill-rule="evenodd">
        <path fill="#F2F3F7" d="M25 12.7v8.816c0 1.206-2.164 2.184-4.833 2.184H7.833C5.163 23.7 3 22.722 3 21.516V3.884C3 2.678 5.164 1.7 7.833 1.7h12.334c2.67 0 4.833.978 4.833 2.184V12.7z"/>
        <path fill="#DCDDE2" d="M21.454 25.998H6.546c-.744 0-1.346-.985-1.346-2.2 0-1.923.954-3.483 2.131-3.483H20.67c1.177 0 2.131 1.56 2.131 3.483 0 1.215-.602 2.2-1.346 2.2z"/>
    </g>
</svg>
