<svg xmlns="http://www.w3.org/2000/svg" width="56" height="56" viewBox="0 0 56 56">
    <g fill="none" fill-rule="evenodd">
        <path fill="#9EA7D0" fill-rule="nonzero" d="M39.533 51.695a6.15 6.15 0 0 1-3.106 3.555 6.138 6.138 0 0 1-4.516.376L9.197 47.959a6.152 6.152 0 0 1-3.556-3.106 6.138 6.138 0 0 1-.315-4.703L14.3 13.568a6.117 6.117 0 0 1 2.435-3.168L27.53 1.41C28.226.8 29.389.342 30.297.191a6.154 6.154 0 0 1 2.972.24l8.115 2.722a6.145 6.145 0 0 1 2.691 1.805 6.192 6.192 0 0 1 1.395 2.884l3.134 13.696a6.145 6.145 0 0 1-.11 3.572l-1.43 4.236c.93.314 1.927.594 2.999.833a1.089 1.089 0 1 1-.47 2.128 31.87 31.87 0 0 1-3.225-.894l-6.835 20.28zM24.564 38.499a1.09 1.09 0 1 0 0 2.18 1.09 1.09 0 0 0 0-2.18zM32.212 13.7a1.09 1.09 0 0 1 2.18.043c0 .012-.046 1.364.44 3.308.032-.015.065-.03.097-.047a3.648 3.648 0 0 0 1.844-2.108c.325-.96.229-1.96-.188-2.802a3.65 3.65 0 0 0-2.108-1.844 3.657 3.657 0 0 0-2.802.188 3.647 3.647 0 0 0-1.844 2.108c-.325.96-.229 1.96.188 2.803a3.65 3.65 0 0 0 2.648 1.982c-.504-2.139-.455-3.618-.455-3.631zm3.292 5.438c1.252 3.143 3.906 6.959 9.524 9.423l1.397-4.151c.125-.37.197-.754.209-1.142a4 4 0 0 0-.14-1.165L43.341 8.33a4.002 4.002 0 0 0-.917-1.943 3.959 3.959 0 0 0-1.733-1.165L32.577 2.5a4 4 0 0 0-1.93-.155c-.16.027-1.384.486-1.759.768l-10.916 9.084a3.984 3.984 0 0 0-1.603 2.063L7.393 40.843a3.976 3.976 0 0 0 .205 3.044 3.965 3.965 0 0 0 2.29 2.004l22.529 7.607a3.976 3.976 0 0 0 3.044-.205 3.965 3.965 0 0 0 2.003-2.29l6.863-20.364c-6.612-2.828-9.618-7.391-10.984-11.07a5.848 5.848 0 0 1-2.634-11.088 5.848 5.848 0 0 1 8.133 7.108 5.83 5.83 0 0 1-3.338 3.549zM16.49 31.425l19.45 6.546a1.09 1.09 0 1 0 .692-2.067l-19.45-6.547a1.09 1.09 0 1 0-.692 2.068z"/>
        <path fill="#3880FF" d="M21.602 38.204c0 .54-.487 1.09-1.09 1.09-.13 0-.257-.024-.374-.067l-5.64-1.898a1.09 1.09 0 1 1 .692-2.069l5.672 1.91c.472.16.74.535.74 1.034zm7.372 1.696l5.665 1.907a1.091 1.091 0 0 1-.692 2.068l-5.599-1.884-.072-.025c-.454-.174-.7-.53-.7-1.018 0-.696.721-1.246 1.398-1.048zm-10.49-14.378a1.09 1.09 0 0 1 .692-2.069L38.626 30a1.09 1.09 0 1 1-.692 2.068l-19.45-6.546z"/>
    </g>
</svg>
