<svg xmlns="http://www.w3.org/2000/svg" width="24" height="24" viewBox="0 0 24 24">
    <path fill="#9EA7D0" fill-rule="nonzero" d="M19.034 3c-.036 0-.936 0-1.962.398-1.21.47-2.112 1.295-2.636 2.403l-3.064-.311a2.794 2.794 0 0 0-2.268.807l-5.28 5.261a2.81 2.81 0 0 0 0 3.966l4.607 4.61c.553.554 1.28.831 2.003.83a2.77 2.77 0 0 0 1.965-.809.702.702 0 0 0-.992-.992c-.542.541-1.432.532-1.984-.02l-4.606-4.611a1.404 1.404 0 0 1-.002-1.981l5.28-5.261c.3-.3.714-.447 1.135-.405l3.573.363.03.003 1.734.177.11 1.069a9.478 9.478 0 0 1-2.453.536.701.701 0 0 0 .074 1.401 10.716 10.716 0 0 0 2.525-.502l.287 2.817c.042.421-.104.834-.403 1.133l-2.696 2.646a.701.701 0 0 0 .983 1.001l2.698-2.648.005-.005c.6-.598.894-1.426.808-2.269l-.33-3.247C20 8.385 20.96 6.877 20.96 4.964V4.93A1.93 1.93 0 0 0 19.034 3zm.523 1.964c0 1.19-.516 2.146-1.54 2.853l-.112-1.1a.702.702 0 0 0-.627-.627l-1.32-.134c.37-.548.9-.962 1.58-1.234a4.54 4.54 0 0 1 1.493-.32c.29 0 .526.237.526.527v.035z"/>
</svg>
