<svg xmlns="http://www.w3.org/2000/svg" width="28" height="28" viewBox="0 0 28 28">
    <g fill="none" fill-rule="nonzero">
        <path fill="#FFA597" d="M5.285 19.105c1.262 0 2.286.884 2.286 1.974v.658h12.188v-.658c0-1.09 1.023-1.974 2.285-1.974V3.974C22.044 2.884 21.021 2 19.76 2H7.571c-1.263 0-2.286.884-2.286 1.974v15.131z"/>
        <path fill="#FF7B66" d="M7.57 23.053H19.76V27H7.571v-3.947zM3.763 20.42h1.523c.421 0 .762.295.762.658V27H3v-5.921c0-.363.341-.658.762-.658zm17.52.658c0-.363.342-.658.762-.658h1.524c.42 0 .762.295.762.658V27h-3.047v-5.921z"/>
    </g>
</svg>
