<svg xmlns="http://www.w3.org/2000/svg" width="28" height="28" viewBox="0 0 28 28">
    <g fill="none" fill-rule="nonzero">
        <path fill="#DCDDE2" d="M7.57 23.053H19.76V27H7.571z"/>
        <path fill="#F2F3F7" d="M5.285 19.105c1.262 0 2.286.884 2.286 1.974v.658h12.188v-.658c0-1.09 1.023-1.974 2.285-1.974V3.974C22.044 2.884 21.021 2 19.76 2H7.571c-1.263 0-2.286.884-2.286 1.974v15.131z"/>
        <path fill="#DCDDE2" d="M3.762 20.421c-.42 0-.762.295-.762.658V27h3.047v-5.921c0-.363-.341-.658-.762-.658H3.762zM21.283 21.079V27h3.047v-5.921c0-.363-.341-.658-.762-.658h-1.524c-.42 0-.761.295-.761.658z"/>
    </g>
</svg>
