<svg xmlns="http://www.w3.org/2000/svg" width="24" height="24" viewBox="0 0 24 24">
    <path fill="#9EA7D0" fill-rule="nonzero" d="M10.383 3c1.282 0 2.545.334 3.653.966a.703.703 0 1 1-.697 1.221 5.975 5.975 0 0 0-2.956-.78 5.983 5.983 0 0 0-5.977 5.976 5.983 5.983 0 0 0 5.977 5.976 5.978 5.978 0 0 0 5.213-8.901.703.703 0 1 1 1.226-.69 7.387 7.387 0 0 1 .944 3.615c0 1.774-.63 3.405-1.677 4.68l4.707 4.738a.7.7 0 0 1-.004.995.703.703 0 0 1-.994-.004l-4.7-4.732a7.349 7.349 0 0 1-4.715 1.706C6.312 17.766 3 14.454 3 10.383S6.312 3 10.383 3z"/>
</svg>
