<?xml version="1.0" encoding="iso-8859-1"?>
<!-- Generator: Adobe Illustrator 19.0.0, SVG Export Plug-In . SVG Version: 6.00 Build 0)  -->
<svg version="1.1" id="Capa_1" xmlns="http://www.w3.org/2000/svg" xmlns:xlink="http://www.w3.org/1999/xlink" x="0px" y="0px"
	 viewBox="0 0 399.226 399.226" style="enable-background:new 0 0 399.226 399.226;" xml:space="preserve">
<g>
	<path style="fill:#1185E0;" d="M199.65,215.352c-2.09,0-4.18-0.522-6.269-1.045L9.479,135.939
		c-5.747-2.612-9.404-8.359-9.404-14.629s3.657-12.016,9.404-14.629l183.902-78.89c4.18-1.567,8.359-1.567,12.539,0l183.902,78.89
		c5.747,2.612,9.404,8.359,9.404,14.629s-3.657,12.016-9.404,14.629L205.92,214.307C203.83,214.829,201.74,215.352,199.65,215.352z
		 M55.454,121.311l144.196,61.127l144.196-61.127L199.65,59.662L55.454,121.311z"/>
	<path style="fill:#1185E0;" d="M199.65,372.609c-2.09,0-4.18-0.522-6.269-1.045L9.479,292.674
		c-7.837-3.657-11.494-12.539-8.359-20.376c3.657-7.837,12.539-11.494,20.376-8.359l177.633,76.278l177.633-76.278
		c7.837-3.657,17.241,0.522,20.376,8.359c3.657,7.837-0.522,17.241-8.359,20.376l-182.857,78.89
		C203.83,372.086,201.74,372.609,199.65,372.609z"/>
</g>
<path style="fill:#4DCFE0;" d="M199.65,293.719c-2.09,0-4.18-0.522-6.269-1.045L9.479,214.307
	c-7.837-3.135-11.494-12.539-8.359-20.376s12.539-11.494,20.376-8.359l177.633,75.755l177.633-75.755
	c7.837-3.135,17.241,0.522,20.376,8.359c3.135,7.837-0.522,17.241-8.359,20.376l-183.902,78.367
	C203.83,293.197,201.74,293.719,199.65,293.719z"/>
<g>
</g>
<g>
</g>
<g>
</g>
<g>
</g>
<g>
</g>
<g>
</g>
<g>
</g>
<g>
</g>
<g>
</g>
<g>
</g>
<g>
</g>
<g>
</g>
<g>
</g>
<g>
</g>
<g>
</g>
</svg>
