<?xml version="1.0" encoding="iso-8859-1"?>
<!-- Generator: Adobe Illustrator 19.0.0, SVG Export Plug-In . SVG Version: 6.00 Build 0)  -->
<svg version="1.1" id="Capa_1" xmlns="http://www.w3.org/2000/svg" xmlns:xlink="http://www.w3.org/1999/xlink" x="0px" y="0px"
	 viewBox="0 0 418.482 418.482" style="enable-background:new 0 0 418.482 418.482;" xml:space="preserve">
<g>
	<path style="fill:#4DCFE0;" d="M341.682,397.845h-31.347V260.963h-54.857v136.882h-31.347V245.29
		c0-8.882,6.792-15.673,15.673-15.673h86.204c8.882,0,15.673,6.792,15.673,15.673V397.845z"/>
	<path style="fill:#4DCFE0;" d="M185.992,341.943h-98.22c-8.882,0-15.673-6.792-15.673-15.673v-80.98
		c0-8.882,6.792-15.673,15.673-15.673h98.22c8.882,0,15.673,6.792,15.673,15.673v80.98
		C201.665,335.151,194.873,341.943,185.992,341.943z M103.445,310.596h66.873v-49.633h-66.873V310.596z"/>
</g>
<path style="fill:#1185E0;" d="M402.808,61.91h-1.567V20.637c0-8.882-6.792-15.673-15.673-15.673H33.437
	c-8.882,0-15.673,6.792-15.673,15.673V61.91h-2.09C6.792,61.91,0,68.702,0,77.584v54.335c0,15.151,6.792,28.212,17.763,37.094
	v228.833c0,8.882,6.792,15.673,15.673,15.673h352.131c8.882,0,15.673-6.792,15.673-15.673V168.49
	c10.449-8.882,17.241-21.943,17.241-36.571V77.584C418.482,68.702,411.69,61.91,402.808,61.91z M49.11,36.31h320.784v25.6h-31.347
	h-0.522h-85.159l0,0l0,0h-86.204H80.98c0,0,0,0-0.522,0c0,0,0,0-0.522,0H48.588v-25.6H49.11z M387.135,131.918
	c0,8.882-7.837,16.718-16.718,16.718c-7.837,0-14.629-5.747-16.196-13.061V93.257h32.914V131.918z M322.873,138.71v0.522
	c0,15.151-12.016,27.167-27.167,27.167s-27.167-12.016-27.167-27.167V93.257h53.812v38.661
	C322.351,134.008,322.351,136.62,322.873,138.71z M182.335,93.257h54.335v45.976c0,15.151-12.016,27.167-27.167,27.167
	s-27.167-12.016-27.167-27.167L182.335,93.257L182.335,93.257z M150.988,139.233c0,15.151-12.016,27.167-27.167,27.167
	s-27.167-12.016-27.167-27.167V93.257h54.335L150.988,139.233L150.988,139.233z M48.065,148.637
	c-8.882,0-16.718-7.837-16.718-16.718V93.257h33.437v38.661C64.784,140.8,56.947,148.637,48.065,148.637z M49.11,382.171V179.984
	c9.404,0,18.808-3.135,26.122-8.359c10.449,15.673,28.212,26.122,48.588,26.122c16.718,0,32.392-7.314,42.841-18.808
	c10.449,11.494,26.122,18.808,42.841,18.808c17.241,0,32.392-7.314,42.841-19.331c10.449,11.494,26.122,19.331,42.841,19.331
	c19.853,0,37.616-9.927,48.588-25.6c7.314,4.702,16.196,7.837,25.6,7.837v202.188L49.11,382.171L49.11,382.171z"/>
<g>
</g>
<g>
</g>
<g>
</g>
<g>
</g>
<g>
</g>
<g>
</g>
<g>
</g>
<g>
</g>
<g>
</g>
<g>
</g>
<g>
</g>
<g>
</g>
<g>
</g>
<g>
</g>
<g>
</g>
</svg>
