<?xml version="1.0" encoding="iso-8859-1"?>
<!-- Generator: Adobe Illustrator 19.0.0, SVG Export Plug-In . SVG Version: 6.00 Build 0)  -->
<svg version="1.1" id="Capa_1" xmlns="http://www.w3.org/2000/svg" xmlns:xlink="http://www.w3.org/1999/xlink" x="0px" y="0px"
	 viewBox="0 0 493.192 493.192" style="enable-background:new 0 0 493.192 493.192;" xml:space="preserve">
<g>
	<path style="fill:#1185E0;" d="M205.078,447.739L205.078,447.739c-4.702,0-8.882-2.09-12.016-5.747L61.405,287.869
		c-12.016-13.584-20.898-28.212-26.122-43.363C14.384,189.127,22.221,126.433,56.18,77.322C90.662,28.212,144.474,0,205.078,0
		c60.082,0,114.416,28.212,148.898,77.845c33.959,49.11,41.796,111.804,20.898,166.661c-3.135,8.359-7.314,16.196-10.971,22.465
		l-27.167-15.673c3.135-5.224,6.269-11.494,8.882-17.763c17.241-45.976,10.971-97.698-17.241-138.449s-73.143-64.261-122.776-64.261
		c-50.155,0-94.563,23.51-122.776,64.261s-34.482,92.473-17.241,138.449c4.18,11.494,11.494,22.988,20.898,33.959L206.123,407.51
		l22.988-26.645l24.033,20.376l-35.004,40.751C213.96,445.649,209.78,447.739,205.078,447.739z"/>
	<path style="fill:#1185E0;" d="M205.078,268.539c-48.588,0-87.771-39.184-87.771-87.771s39.184-87.771,87.771-87.771
		s87.771,39.184,87.771,87.771S253.666,268.539,205.078,268.539z M205.078,124.343c-31.347,0-56.424,25.078-56.424,56.424
		s25.078,56.424,56.424,56.424s56.424-25.078,56.424-56.424S236.425,124.343,205.078,124.343z"/>
</g>
<path style="fill:#4DCFE0;" d="M464.735,466.547l-45.976-45.975c14.106-18.808,22.465-42.318,22.465-67.396
	c0-62.171-50.155-112.327-112.327-112.327s-112.327,50.155-112.327,112.327s50.155,112.327,112.327,112.327
	c25.6,0,48.588-8.359,67.396-22.988l46.498,45.976c3.135,3.135,6.792,4.702,10.971,4.702c4.18,0,7.837-1.567,10.971-4.702
	C471.005,482.22,471.005,472.294,464.735,466.547z M247.919,353.176c0-44.408,36.571-80.98,80.98-80.98s80.98,36.571,80.98,80.98
	s-36.571,80.98-80.98,80.98S247.919,397.584,247.919,353.176z"/>
<g>
</g>
<g>
</g>
<g>
</g>
<g>
</g>
<g>
</g>
<g>
</g>
<g>
</g>
<g>
</g>
<g>
</g>
<g>
</g>
<g>
</g>
<g>
</g>
<g>
</g>
<g>
</g>
<g>
</g>
</svg>
