<?xml version="1.0" encoding="iso-8859-1"?>
<!-- Generator: Adobe Illustrator 19.0.0, SVG Export Plug-In . SVG Version: 6.00 Build 0)  -->
<svg version="1.1" id="Capa_1" xmlns="http://www.w3.org/2000/svg" xmlns:xlink="http://www.w3.org/1999/xlink" x="0px" y="0px"
	 viewBox="0 0 461.322 461.322" style="enable-background:new 0 0 461.322 461.322;" xml:space="preserve">
<path style="fill:#1185E0;" d="M229.616,461.322c-31.869,0-57.469-25.6-57.469-57.469v-27.167h31.347v27.167
	c0,14.629,11.494,26.122,26.122,26.122c14.629,0,26.122-11.494,26.122-26.122v-27.167h31.347v27.167
	C287.086,435.722,261.486,461.322,229.616,461.322z"/>
<path style="fill:#4DCFE0;" d="M228.571,96.131c-26.645,0-48.065-21.42-48.065-48.065S201.926,0,228.571,0
	c26.645,0,48.065,21.42,48.065,48.065S255.216,96.131,228.571,96.131z M228.571,31.347c-8.882,0-16.718,7.837-16.718,16.718
	s7.837,16.718,16.718,16.718s16.718-7.837,16.718-16.718S237.453,31.347,228.571,31.347z"/>
<path style="fill:#1185E0;" d="M380.082,376.686h-31.347V215.771c0-66.351-53.812-120.163-120.163-120.163
	S108.408,149.42,108.408,215.771v160.914H77.061V215.771c0-83.592,67.918-151.51,151.51-151.51s151.51,67.918,151.51,151.51V376.686
	z"/>
<path style="fill:#4DCFE0;" d="M397.845,392.359H63.478c-8.882,0-15.673-6.792-15.673-15.673s6.792-15.673,15.673-15.673h334.367
	c8.882,0,15.673,6.792,15.673,15.673S406.727,392.359,397.845,392.359z"/>
<g>
</g>
<g>
</g>
<g>
</g>
<g>
</g>
<g>
</g>
<g>
</g>
<g>
</g>
<g>
</g>
<g>
</g>
<g>
</g>
<g>
</g>
<g>
</g>
<g>
</g>
<g>
</g>
<g>
</g>
</svg>
