<svg xmlns="http://www.w3.org/2000/svg" viewBox="0 0 77.61 77.61"><defs><style>.cls-1{fill:#e17826;}.cls-2{fill:#fff;}</style></defs><title>outdoor</title><g id="Layer_2" data-name="Layer 2"><g id="Layer_1-2" data-name="Layer 1"><circle class="cls-1" cx="38.8" cy="38.8" r="38.8"/><g id="_36" data-name="36"><path class="cls-2" d="M28.59,24.11H45a.78.78,0,0,0,0-1.57H28.59a.78.78,0,0,0,0,1.57Z"/><path class="cls-2" d="M13.87,31.77H30.33a.78.78,0,1,0,0-1.57H13.87a.78.78,0,1,0,0,1.57Z"/><path class="cls-2" d="M18.29,39.82a.78.78,0,0,0,.78.78H35.53a.78.78,0,0,0,0-1.57H19.07A.78.78,0,0,0,18.29,39.82Z"/><path class="cls-2" d="M27.71,48.92H12.92a.78.78,0,1,0,0,1.57H27.71a.78.78,0,1,0,0-1.57Z"/><path class="cls-2" d="M54.31,29A4.28,4.28,0,1,0,50,24.75,4.28,4.28,0,0,0,54.31,29Z"/><path class="cls-2" d="M61.34,27.79c-2.46,3.44-5.74,3.84-9.28,1.74l-1.55-.87c-5.69-3.38-11.38-2.05-15.19,3.29-1.62,2.27,2.13,4.42,3.73,2.18,2-2.76,4.47-3.56,7.21-2.68-1.4,2.43-2.63,4.85-4.36,8.29s-5.55,6.18-9.22,4c-2.65-1.55-5,2.26-2.4,3.8a10.84,10.84,0,0,0,13.89-2.68,2.35,2.35,0,0,0,.33.15A27.74,27.74,0,0,1,51.16,49c1,.81,2.66,4.91,3.66,7,1.21,2.5,5.12.68,3.91-1.83-1.13-2.34-3-7-4.51-8.19a37.19,37.19,0,0,0-5.45-3.71q2-3.85,4.16-7.6c4.63,1.42,9-.25,12.16-4.64C66.69,27.7,62.95,25.55,61.34,27.79Z"/></g></g></g></svg>