<?xml version="1.0" encoding="iso-8859-1"?>
<!-- Generator: Adobe Illustrator 19.0.0, SVG Export Plug-In . SVG Version: 6.00 Build 0)  -->
<svg version="1.1" id="Capa_1" xmlns="http://www.w3.org/2000/svg" xmlns:xlink="http://www.w3.org/1999/xlink" x="0px" y="0px"
	 viewBox="0 0 495.264 495.264" style="enable-background:new 0 0 495.264 495.264;" xml:space="preserve">
<g>
	<path style="fill:#00ACEA;" d="M134.252,352.122l-3.135-1.045c-2.922-0.941-4.85-3.725-4.702-6.792v-61.127H96.113
		C43.021,283.149-0.01,240.102,0,187.01c0.01-53.078,43.035-96.103,96.113-96.113h151.51c53.091,0.01,96.123,43.057,96.113,96.148
		c-0.01,53.078-43.035,96.103-96.113,96.113h-44.408l-63.216,66.351C138.498,351.098,136.435,352.036,134.252,352.122z
		 M96.113,106.571c-44.435,0.001-80.456,36.024-80.455,80.459c0.001,44.434,36.021,80.454,80.455,80.455h38.139
		c4.328,0,7.837,3.509,7.837,7.837v49.11l52.245-54.335c1.422-1.695,3.535-2.656,5.747-2.612h47.543
		c44.435-0.022,80.439-36.062,80.417-80.497c-0.022-44.404-36.013-80.395-80.417-80.417H96.113z"/>
	<g>
		<path style="fill:#00EFD1;" d="M360.994,404.367c-2.183-0.086-4.246-1.024-5.747-2.612l-63.216-66.351h-44.408
			c-18.59,0.115-36.788-5.344-52.245-15.673c-3.578-2.43-4.711-7.189-2.612-10.971c2.406-3.598,7.273-4.564,10.871-2.158
			c0.034,0.023,0.067,0.045,0.101,0.069c13.08,8.458,28.31,12.991,43.886,13.061h47.543c2.212-0.043,4.325,0.917,5.747,2.612
			l52.245,54.335v-49.11c0-4.328,3.509-7.837,7.837-7.837h38.139c44.435,0,80.457-36.022,80.457-80.457
			s-36.022-80.457-80.457-80.457h-36.571c-4.328,0-7.837-3.509-7.837-7.837c0-4.328,3.509-7.837,7.837-7.837l0,0h36.571
			c53.091,0,96.131,43.039,96.131,96.131s-43.039,96.131-96.131,96.131h-30.302v61.127c0.148,3.066-1.78,5.851-4.702,6.792
			L360.994,404.367z"/>
		<path style="fill:#00EFD1;" d="M140.521,168.742c0.052-4.272,1.32-8.44,3.657-12.016c2.81-4.334,6.797-7.778,11.494-9.927
			c5.129-2.786,10.882-4.224,16.718-4.18c5.625-0.209,11.207,1.052,16.196,3.657c4.389,1.92,8.179,4.989,10.971,8.882
			c2.527,3.682,3.809,8.076,3.657,12.539c0.183,3.267-0.54,6.522-2.09,9.404c-1.443,2.479-3.199,4.761-5.224,6.792l-10.449,9.927
			l-3.657,3.135l-2.09,3.135c-0.143,0.782-0.505,1.507-1.045,2.09c0,1.045-0.522,2.612-0.522,4.702
			c-0.54,3.835-3.977,6.584-7.837,6.269c-1.962,0.091-3.867-0.671-5.224-2.09c-1.667-1.661-2.606-3.916-2.612-6.269
			c0.082-3.24,0.792-6.434,2.09-9.404c0.877-2.544,2.304-4.863,4.18-6.792l7.314-6.792l5.747-5.224l3.135-4.18
			c1.998-4.466,0.95-9.707-2.612-13.061c-2.762-2.372-6.286-3.67-9.927-3.657c-3.658-0.115-7.217,1.197-9.927,3.657
			c-2.546,3.097-4.494,6.64-5.747,10.449c-0.278,4.03-3.769,7.072-7.8,6.794c-0.012-0.001-0.025-0.002-0.037-0.003
			c-2.129,0.176-4.228-0.587-5.747-2.09C141.626,172.932,140.704,170.902,140.521,168.742z M171.345,237.705
			c-2.513,0.02-4.94-0.913-6.792-2.612c-2.128-1.587-3.307-4.143-3.135-6.792c0.061-2.6,1.196-5.059,3.135-6.792
			c1.787-1.801,4.259-2.751,6.792-2.612c4.905-0.008,8.889,3.961,8.897,8.866c0,0.179-0.005,0.359-0.015,0.538
			c0.297,2.555-0.679,5.094-2.612,6.792C175.854,236.605,173.659,237.52,171.345,237.705L171.345,237.705z"/>
	</g>
</g>
<g>
</g>
<g>
</g>
<g>
</g>
<g>
</g>
<g>
</g>
<g>
</g>
<g>
</g>
<g>
</g>
<g>
</g>
<g>
</g>
<g>
</g>
<g>
</g>
<g>
</g>
<g>
</g>
<g>
</g>
</svg>
