<svg xmlns="http://www.w3.org/2000/svg" viewBox="0 0 77.61 77.61"><defs><style>.cls-1{fill:#665b47;}.cls-2{fill:#fff;}</style></defs><title>
religion
</title><g id="Layer_2" data-name="Layer 2"><g id="Layer_1-2" data-name="Layer 1"><circle class="cls-1" cx="38.8" cy="38.8" r="38.8"/><g id="Outline"><path class="cls-2" d="M39.8,64.71h9.32a1,1,0,0,0,.7-.29L64.42,49.83a1,1,0,0,0,.29-.71V32.83a1,1,0,0,0-2,0V48.71l-14,14H39.8a1,1,0,1,0,0,2Z"/><path class="cls-2" d="M64.42,27.78,49.83,13.19a1,1,0,0,0-.7-.29H28.49a1,1,0,0,0-.71.29L13.19,27.78a1,1,0,0,0-.29.7V49.12a1,1,0,0,0,.29.71L27.78,64.42a1,1,0,0,0,.71.29h7.33a1,1,0,0,0,0-2H28.9l-14-14V28.9l14-14H48.71L63,29.19a1,1,0,0,0,1.41-1.41Z"/><path class="cls-2" d="M16.88,35.82v6a1,1,0,1,0,2,0v-6a1,1,0,0,0-2,0Z"/><path class="cls-2" d="M60.73,41.79v-6a1,1,0,0,0-2,0v6a1,1,0,1,0,2,0Z"/><path class="cls-2" d="M41.79,18.88a1,1,0,1,0,0-2h-6a1,1,0,0,0,0,2Z"/><path class="cls-2" d="M35.82,60.73h6a1,1,0,1,0,0-2h-6a1,1,0,0,0,0,2Z"/><path class="cls-2" d="M21.19,50.78a1,1,0,0,0,0,1.41l4.23,4.23A1,1,0,1,0,26.85,55l0,0L22.6,50.78A1,1,0,0,0,21.19,50.78Z"/><path class="cls-2" d="M55.72,27.12a1,1,0,0,0,.7-1.7l-4.23-4.23a1,1,0,0,0-1.41,1.41L55,26.83A1,1,0,0,0,55.72,27.12Z"/><path class="cls-2" d="M22.6,26.83l4.23-4.23a1,1,0,0,0-1.41-1.41l-4.23,4.23a1,1,0,1,0,1.38,1.43Z"/><path class="cls-2" d="M55,50.78,50.78,55a1,1,0,0,0,1.38,1.43l0,0,4.23-4.23A1,1,0,1,0,55,50.76Z"/><path class="cls-2" d="M42.29,30.33a3.49,3.49,0,1,0-3.49,3.49h0A3.49,3.49,0,0,0,42.29,30.33Zm-5,0a1.49,1.49,0,1,1,1.49,1.49A1.49,1.49,0,0,1,37.31,30.33Z"/><path class="cls-2" d="M35.32,47.27a3.49,3.49,0,1,0,3.49-3.49A3.49,3.49,0,0,0,35.32,47.27Zm5,0a1.49,1.49,0,1,1-1.49-1.49A1.49,1.49,0,0,1,40.3,47.27Z"/><path class="cls-2" d="M49.9,52.88a1,1,0,0,0-1.23-1.56,15.77,15.77,0,0,1-9.86,3.43c-.21,0-.41,0-.61,0A7.47,7.47,0,0,1,38.8,39.8a9.44,9.44,0,0,0,7.68-15,16,16,0,0,1,8.26,14,15.77,15.77,0,0,1-3.43,9.86,1,1,0,0,0,1.56,1.23A17.74,17.74,0,0,0,56.74,38.8,18,18,0,0,0,38.8,20.87a17.74,17.74,0,0,0-11.09,3.86,1,1,0,1,0,1.23,1.56,15.77,15.77,0,0,1,9.86-3.43c.21,0,.41,0,.61,0a7.47,7.47,0,0,1-.61,14.92,9.47,9.47,0,0,0-7.73,14.93A16,16,0,0,1,22.86,38.8a15.76,15.76,0,0,1,3.43-9.86,1,1,0,1,0-1.56-1.23h0A17.74,17.74,0,0,0,20.87,38.8,18,18,0,0,0,38.8,56.74,17.74,17.74,0,0,0,49.9,52.88Z"/></g></g></g></svg>