<svg xmlns="http://www.w3.org/2000/svg" viewBox="0 0 77.61 77.61"><defs><style>.cls-1{fill:#48b749;}.cls-2{fill:#fff;}</style></defs><title>services</title><g id="Layer_2" data-name="Layer 2"><g id="Layer_1-2" data-name="Layer 1"><circle class="cls-1" cx="38.8" cy="38.8" r="38.8"/><path class="cls-2" d="M24.23,52.44a3.93,3.93,0,0,0-1.9.48A22.22,22.22,0,0,1,44.27,17.5a.94.94,0,0,0,.37-1.85,24.28,24.28,0,0,0-4.8-.48,24.1,24.1,0,0,0-18.91,39,4,4,0,1,0,3.29-1.76Zm1.46,5.42a2.07,2.07,0,1,1,.61-1.46A2.06,2.06,0,0,1,25.69,57.86Z"/><path class="cls-2" d="M58.76,24.33a3.95,3.95,0,1,0-1.39,1.28,22.22,22.22,0,0,1-21.9,35.44.94.94,0,1,0-.37,1.85,24.29,24.29,0,0,0,4.75.47,24.1,24.1,0,0,0,18.91-39ZM54,23.61a2.07,2.07,0,1,1,1.46.61A2.06,2.06,0,0,1,54,23.61Z"/><path class="cls-2" d="M36,55.46a.94.94,0,0,0,.94.94h5.89a.94.94,0,0,0,.94-.94V53.63a14.74,14.74,0,0,0,3.53-1.46l1.29,1.29a.94.94,0,0,0,1.33,0L54,49.3A.94.94,0,0,0,54,48l-1.29-1.29a14.74,14.74,0,0,0,1.46-3.53H56A.94.94,0,0,0,57,42.2V36.32a.94.94,0,0,0-.94-.94H54.22a14.74,14.74,0,0,0-1.46-3.53L54,30.56a.94.94,0,0,0,0-1.33l-4.16-4.16a.94.94,0,0,0-1.33,0l-1.28,1.28a14.74,14.74,0,0,0-3.53-1.46V23.08a.94.94,0,0,0-.94-.94H36.91a.94.94,0,0,0-.94.94v1.81a14.73,14.73,0,0,0-3.53,1.46l-1.28-1.28a.94.94,0,0,0-1.33,0l-4.16,4.16a.94.94,0,0,0,0,1.33l1.28,1.28a14.74,14.74,0,0,0-1.46,3.53H23.66a.94.94,0,0,0-.94.94V42.2a.94.94,0,0,0,.94.94h1.82a14.74,14.74,0,0,0,1.46,3.53L25.65,48a.94.94,0,0,0,0,1.33l4.16,4.16a.94.94,0,0,0,.67.28h0a.94.94,0,0,0,.67-.28l1.29-1.29A14.75,14.75,0,0,0,36,53.63ZM32.8,50.19a.94.94,0,0,0-1.18.13l-1.15,1.15-2.83-2.83,1.14-1.15a.94.94,0,0,0,.13-1.18A12.88,12.88,0,0,1,27.14,42a.94.94,0,0,0-.92-.74H24.6v-4h1.61a.94.94,0,0,0,.92-.74,12.89,12.89,0,0,1,1.78-4.3A.94.94,0,0,0,28.79,31L27.66,29.9l2.83-2.83,1.14,1.14a.94.94,0,0,0,1.18.13,12.88,12.88,0,0,1,4.3-1.78.94.94,0,0,0,.74-.92V24h4v1.61a.94.94,0,0,0,.74.92,12.89,12.89,0,0,1,4.3,1.78.94.94,0,0,0,1.18-.13l1.14-1.14L52,29.9,50.9,31a.94.94,0,0,0-.13,1.18,12.89,12.89,0,0,1,1.78,4.3.94.94,0,0,0,.92.74H55.1v4H53.48a.94.94,0,0,0-.92.74,12.88,12.88,0,0,1-1.78,4.3.94.94,0,0,0,.13,1.18L52,48.63l-2.83,2.83-1.15-1.15a.94.94,0,0,0-1.18-.13A12.89,12.89,0,0,1,42.59,52a.94.94,0,0,0-.74.92v1.62h-4V52.89A.94.94,0,0,0,37.1,52,12.89,12.89,0,0,1,32.8,50.19Z"/><path class="cls-2" d="M47.63,39.27A7.78,7.78,0,1,0,39.85,47,7.79,7.79,0,0,0,47.63,39.27ZM34,39.27a5.9,5.9,0,1,1,5.9,5.9A5.9,5.9,0,0,1,34,39.27Z"/><path class="cls-2" d="M48.52,18.73a.94.94,0,1,0-.67-.28A.95.95,0,0,0,48.52,18.73Z"/><path class="cls-2" d="M31.22,59.82a.94.94,0,1,0,.67.28A.95.95,0,0,0,31.22,59.82Z"/></g></g></svg>