<svg xmlns="http://www.w3.org/2000/svg" viewBox="0 0 77.61 77.61"><defs><style>.cls-1{fill:#fabb1c;}.cls-2{fill:#fff;}</style></defs><title>shopping</title><g id="Layer_2" data-name="Layer 2"><g id="Layer_1-2" data-name="Layer 1"><circle class="cls-1" cx="38.8" cy="38.8" r="38.8"/><path class="cls-2" d="M35.08,52a4.05,4.05,0,1,0,4.05,4.05A4.06,4.06,0,0,0,35.08,52Zm0,5.85a1.79,1.79,0,1,1,1.79-1.79A1.79,1.79,0,0,1,35.08,57.87Z"/><path class="cls-2" d="M49.31,52a4.05,4.05,0,1,0,4.05,4.05A4.06,4.06,0,0,0,49.31,52Zm0,5.85a1.79,1.79,0,1,1,1.79-1.79A1.79,1.79,0,0,1,49.31,57.87Z"/><path class="cls-2" d="M50.31,30.68H34.08a1.13,1.13,0,0,0,0,2.26H50.31a1.13,1.13,0,1,0,0-2.26Z"/><path class="cls-2" d="M49.42,36.56H35a1.13,1.13,0,0,0,0,2.26H49.42a1.13,1.13,0,0,0,0-2.26Z"/><path class="cls-2" d="M61.35,25.63a2.25,2.25,0,0,0-1.76-.83H24.33l-.71-3.46a2.27,2.27,0,0,0-1.32-1.62l-5-2.16a1.13,1.13,0,0,0-.9,2.08l5,2.16,5.48,26.59A2.27,2.27,0,0,0,29.1,50.2H56.22a1.13,1.13,0,0,0,0-2.26H29.1l-.67-3.23h28a2.27,2.27,0,0,0,2.22-1.81l3.17-15.37A2.26,2.26,0,0,0,61.35,25.63Zm-4.92,16.8H28L24.8,27.06h34.8Z"/></g></g></svg>