<svg xmlns="http://www.w3.org/2000/svg" viewBox="0 0 77.61 77.61"><defs><style>.cls-1{fill:#17a5a1;}.cls-2{fill:#fff;}</style></defs><title>transport</title><g id="Layer_2" data-name="Layer 2"><g id="Layer_1-2" data-name="Layer 1"><circle class="cls-1" cx="38.8" cy="38.8" r="38.8"/><path class="cls-2" d="M54.56,47.81a4.68,4.68,0,0,0-3.3,1.36,4.59,4.59,0,0,0,0,6.56,4.7,4.7,0,0,0,3.3,1.36,4.64,4.64,0,0,0,0-9.29Zm0,7.22a2.58,2.58,0,1,1,0-5.16,2.58,2.58,0,0,1,0,5.16Zm1.2-22.69a1,1,0,0,0-.69-.27H49.78a1,1,0,0,0-1,1v8.46a1,1,0,0,0,1,1h8.4a1,1,0,0,0,1-1V35.9a1,1,0,0,0-.34-.76Zm1.38,8.19H50.81V34.13h3.86l2.48,2.23ZM29.36,47.81a4.68,4.68,0,0,0-3.3,1.36,4.59,4.59,0,0,0,0,6.56,4.7,4.7,0,0,0,3.3,1.36,4.64,4.64,0,0,0,0-9.29Zm0,7.22a2.58,2.58,0,1,1,0-5.16,2.58,2.58,0,0,1,0,5.16Zm-6.88-6H20.41V46.33a1,1,0,0,0-2.06,0v3.78a1,1,0,0,0,1,1h3.11a1,1,0,0,0,0-2.06Zm5.23-5.62a1,1,0,0,0-1-1H14.16a1,1,0,1,0,0,2.06H26.68A1,1,0,0,0,27.71,43.46ZM16.26,39.73l12.52.07a1,1,0,0,0,1-1,1,1,0,0,0-1-1l-12.52-.07h0a1,1,0,0,0,0,2.06ZM18.36,35H30.88a1,1,0,0,0,0-2.06H18.36a1,1,0,0,0,0,2.06Zm45.07-1.39h0L56,27.53a1,1,0,0,0-.66-.24H46.69V23.58a1,1,0,0,0-1-1H19.37a1,1,0,0,0-1,1v7.55a1,1,0,0,0,2.06,0V24.61H44.64V49.08H36.17a1,1,0,1,0,0,2.06h12.6a1,1,0,0,0,0-2.06H46.7V29.36H55l6.73,5.57-.07,14.13H60.6a1,1,0,0,0,0,2.06H62.7a1,1,0,0,0,1-1l.08-15.65A1.09,1.09,0,0,0,63.43,33.65Z"/></g></g></svg>