<svg xmlns="http://www.w3.org/2000/svg" viewBox="0 0 77.61 77.61"><defs><style>.cls-1{fill:#7f7f7f;}.cls-2{fill:#fff;}</style></defs><title>uncategorized</title><g id="Layer_2" data-name="Layer 2"><g id="Layer_1-2" data-name="Layer 1"><circle class="cls-1" cx="38.8" cy="38.8" r="38.8"/><path class="cls-2" d="M44.93,45.19a1,1,0,0,1-1-1v-.61a4.24,4.24,0,0,1,2.67-4.18,4.44,4.44,0,1,0-6.16-4.1,1,1,0,0,1-1.91,0,6.35,6.35,0,1,1,8.81,5.86,2.35,2.35,0,0,0-1.51,2.42v.62A1,1,0,0,1,44.93,45.19Z"/><path class="cls-2" d="M44.93,49a1,1,0,1,0-1-1A1,1,0,0,0,44.93,49Z"/><path class="cls-2" d="M60.37,38.8a15.43,15.43,0,0,0-6.49-12.57V15.37a1,1,0,0,0-1-1h-25l-.12,0h0l-.11,0h0l-.1.07,0,0-.1.08L17.52,24.6l-.06.07,0,0,0,0,0,0,0,0,0,0,0,0,0,0v.18h0v.17h0V51.76a1,1,0,1,0,1.91,0V26.23h9a1,1,0,0,0,1-1v-9H52v8.75a15.44,15.44,0,1,0,0,27.47v8.75H19.15V59.39a1,1,0,0,0-1.91,0v2.86a1,1,0,0,0,1,1H52.92a1,1,0,0,0,1-1V51.38A15.43,15.43,0,0,0,60.37,38.8ZM20.5,24.32l6.66-6.66v6.66Zm24.44,28A13.53,13.53,0,1,1,58.46,38.8,13.54,13.54,0,0,1,44.93,52.33Z"/><path class="cls-2" d="M18.2,56.53a1,1,0,1,0-1-1A1,1,0,0,0,18.2,56.53Z"/></g></g></svg>